<svg width="44" height="36" viewBox="0 0 44 36" fill="none" xmlns="http://www.w3.org/2000/svg">
<path d="M11.3611 0.583252H5.80556C4.33213 0.583252 2.91905 1.63682 1.87718 3.51218C0.835316 5.38755 0.25 7.93109 0.25 10.5833V50.5833H5.80556V30.5833H11.3611V50.5833H16.9167V10.5833C16.9167 7.93109 16.3313 5.38755 15.2895 3.51218C14.2476 1.63682 12.8345 0.583252 11.3611 0.583252V0.583252ZM11.3611 20.5833H5.80556V10.5833H11.3611V20.5833ZM30.8056 0.583252H19.6944V50.5833H25.25V30.5833H30.8056C32.279 30.5833 33.6921 29.5297 34.7339 27.6543C35.7758 25.779 36.3611 23.2354 36.3611 20.5833V10.5833C36.3611 7.93109 35.7758 5.38755 34.7339 3.51218C33.6921 1.63682 32.279 0.583252 30.8056 0.583252V0.583252ZM30.8056 20.5833H25.25V10.5833H30.8056V20.5833ZM47.4722 10.5833V40.5833H50.25V50.5833H39.1389V40.5833H41.9167V10.5833H39.1389V0.583252H50.25V10.5833H47.4722Z" fill="white"/>
</svg>
