<svg width="50" height="50" viewBox="0 0 50 50" fill="none" xmlns="http://www.w3.org/2000/svg">
<g clip-path="url(#clip0_25_116)">
<path d="M27.7104 11.6687C26.4021 8.48542 26.5854 4.90417 28.475 2.02292L29.8875 0C27.275 4.89583 29.7625 10.9083 33.7625 14.0604C34.8328 14.8981 36.026 15.5657 37.3 16.0396C37.6416 16.1646 38.0291 16.2979 38.3833 16.3875C42.8541 17.5125 46.4979 16.7354 48.6666 13.4937C48.6 13.5937 48.5146 13.7521 48.4062 13.9521C47.4396 15.7437 44.6104 20.9875 36.4062 19.3417C36.25 19.3104 36.1 19.2583 35.95 19.2104L35.8166 19.1646L35.7208 19.1333C35.6766 19.118 35.6321 19.1035 35.5875 19.0896C35.466 19.0478 35.3451 19.004 35.225 18.9583C31.9229 17.7 29.0916 15.05 27.7104 11.6687V11.6687Z" fill="white"/>
<path d="M16.9167 6.17928C13.7146 10.9605 13.8896 17.3626 16.3875 22.4209C16.8494 23.3622 17.38 24.2681 17.975 25.1314C18.4104 25.7834 18.8896 26.5064 19.45 27.0105C19.6812 27.2751 19.9229 27.5314 20.1687 27.7834L20.3104 27.9293L20.3583 27.9772C20.607 28.2286 20.862 28.4739 21.1229 28.7126L21.125 28.7147L21.1292 28.7189C21.4441 29.0038 21.7671 29.2796 22.0979 29.5459L22.1812 29.6126C22.4729 29.8459 22.7708 30.0751 23.0771 30.2939L23.0896 30.3022L23.1042 30.3126C23.2021 30.3834 23.3021 30.4522 23.4021 30.5189L23.5125 30.5939C23.5779 30.6371 23.6425 30.6816 23.7062 30.7272C23.925 30.873 24.1458 31.0126 24.3708 31.1501L24.4333 31.1855L24.4646 31.2064C24.7058 31.3502 24.9496 31.4898 25.1958 31.6251L25.2604 31.6584L25.3437 31.7043C25.4521 31.7626 25.5604 31.823 25.6729 31.8793L25.7354 31.9105C26.0577 32.0746 26.3842 32.2302 26.7146 32.3772L26.7812 32.4043C27.0913 32.5408 27.4046 32.67 27.7208 32.7918L27.7833 32.8147C27.9979 32.898 28.2125 32.973 28.4292 33.048L28.5375 33.0855L28.7208 33.1459C28.8021 33.1709 28.8833 33.2001 28.9625 33.2272C29.1896 33.3064 29.4167 33.3834 29.6542 33.4251C46.1833 36.2668 50 23.0584 50 23.0584C46.5604 28.2001 39.8979 30.6543 32.7896 28.7376C32.4748 28.6516 32.1622 28.5578 31.8521 28.4564C31.7687 28.4314 31.6854 28.4022 31.6021 28.373L31.5708 28.3626C31.3513 28.289 31.1332 28.2112 30.9167 28.1293L30.9104 28.1251C30.5509 27.9891 30.1952 27.8432 29.8437 27.6876L29.7271 27.6355C29.3175 27.4503 28.9144 27.2509 28.5187 27.0376L28.4312 26.9918L28.1812 26.8584C27.953 26.7309 27.7273 26.599 27.5042 26.4626C27.0635 26.1935 26.6327 25.9086 26.2125 25.6084C25.9091 25.3894 25.6111 25.1629 25.3187 24.9293L25.2458 24.8689C25.2033 24.8344 25.1609 24.7997 25.1187 24.7647C22.0062 22.2147 19.5396 18.7293 18.3687 14.7793C17.1396 10.6793 17.4042 6.07928 19.5333 2.34595L16.9167 6.17928Z" fill="white"/>
<path d="M3.17499 11.7438C-1.25001 18.348 -0.700011 26.9418 2.68124 33.9584C2.74374 34.0938 2.81249 34.2272 2.87916 34.3584L2.92916 34.4584L2.99166 34.5813C3.04406 34.6906 3.09964 34.7983 3.15832 34.9043L3.18541 34.9563L3.33124 35.2272L3.36249 35.2834C3.46666 35.4751 3.57499 35.6668 3.68541 35.8584L3.72082 35.9209C3.88778 36.2121 4.06214 36.499 4.24374 36.7813L4.28124 36.8438L4.40416 37.0376C4.57916 37.3084 4.75832 37.5813 4.94582 37.8501V37.8522C4.95026 37.8588 4.95513 37.865 4.96041 37.8709L5.01041 37.9397L5.05207 37.998C5.21457 38.2272 5.37916 38.4563 5.54791 38.6813L5.73541 38.9272C6.14377 39.4564 6.56614 39.9746 7.00207 40.4813L7.01457 40.4959L7.02499 40.5063L7.03957 40.523C7.48156 41.0209 7.93872 41.5052 8.41041 41.9751L8.47291 42.0376L8.62082 42.1834C8.85692 42.4142 9.09724 42.6406 9.34166 42.8626L9.41041 42.9251L9.46457 42.9709C9.72531 43.2037 9.98922 43.4329 10.2562 43.6584L10.3729 43.7563C10.55 43.9022 10.7292 44.048 10.9104 44.1897L11.1958 44.4168C11.3958 44.5688 11.5958 44.7188 11.7979 44.8647L11.8312 44.8897L12.0187 45.0272L12.0771 45.0688C12.2604 45.2022 12.4458 45.3272 12.6333 45.4522L12.6625 45.473C12.7466 45.5296 12.8299 45.5872 12.9125 45.6459C13.2603 45.8742 13.6124 46.0958 13.9687 46.3105L14.0812 46.3772C14.3967 46.5635 14.7155 46.7441 15.0375 46.9188L15.1479 46.9793L15.2708 47.0459C15.3937 47.1126 15.5146 47.1793 15.6396 47.2438L15.6917 47.2688L15.7542 47.3001L15.825 47.3355C15.8667 47.3563 15.9104 47.3772 15.9542 47.4022C16.2125 47.5293 16.4708 47.6543 16.7333 47.7772L16.8312 47.8209L16.8979 47.8522C17.5489 48.1487 18.2112 48.4197 18.8833 48.6647L18.9042 48.6709L18.9917 48.7043C19.4666 48.8751 19.9459 49.0335 20.4292 49.1793C20.6708 49.2605 20.9146 49.3397 21.1646 49.3876C42.575 53.4418 48.7937 36.0334 48.7937 36.0334C43.5708 43.0959 34.3 44.9605 25.5146 42.8855C25.184 42.8053 24.8573 42.7101 24.5354 42.6001L24.2896 42.523C23.9729 42.423 23.6583 42.3147 23.3458 42.2043L23.2167 42.1563C22.9354 42.0522 22.6604 41.948 22.3833 41.8355L22.15 41.7397C21.8479 41.6147 21.5479 41.4876 21.2521 41.3522L21.1562 41.3105C20.8739 41.1794 20.5934 41.0447 20.3146 40.9063L20.2292 40.8605C20.1846 40.8393 20.1401 40.8177 20.0958 40.7959L19.65 40.5605L19.5083 40.4855C19.462 40.4602 19.4154 40.4352 19.3687 40.4105L19.1187 40.273C18.8812 40.1418 18.6479 40.0022 18.4146 39.8626L18.325 39.8105L18.1792 39.7272C17.8165 39.5034 17.4581 39.2728 17.1042 39.0355L17.0146 38.973C16.1254 38.3802 15.2732 37.7339 14.4625 37.0376C14.2148 36.8282 13.9703 36.6149 13.7292 36.398L13.6958 36.3668C13.3791 36.0754 13.068 35.7782 12.7625 35.4751C12.5861 35.3008 12.4124 35.1237 12.2417 34.9438L12.1708 34.873C11.901 34.591 11.637 34.3035 11.3792 34.0105L11.3667 33.998L11.3625 33.9918C11.1417 33.7418 10.925 33.4834 10.7125 33.2251L10.5417 33.0147C10.3236 32.7442 10.1103 32.4699 9.90207 32.1918C9.71874 31.9418 9.53749 31.6959 9.36041 31.4438C4.48541 24.5397 2.73332 15.0147 6.63124 7.19385L3.17499 11.7438Z" fill="white"/>
</g>
<defs>
<clipPath id="clip0_25_116">
<rect width="50" height="50" fill="white"/>
</clipPath>
</defs>
</svg>
