<svg width="50" height="42" viewBox="0 0 50 42" fill="none" xmlns="http://www.w3.org/2000/svg">
<path d="M34.1797 5.45079C33.9359 5.45079 33.7734 5.49911 33.6094 5.55892V5.59573H33.6344C33.7484 5.9063 33.9359 6.14786 34.0812 6.43543C34.1953 6.75981 34.2922 7.09339 34.3984 7.41777L34.4312 7.36945C34.6266 7.1647 34.725 6.84263 34.725 6.35031C34.6437 6.20538 34.6266 6.05124 34.5547 5.91781C34.4734 5.71306 34.2937 5.60723 34.1797 5.45079ZM12.0203 45.9243H10.0922C10.0338 41.4057 9.84665 36.8927 9.53124 32.3971H9.51562L6.57812 45.9243H5.10468L2.19062 32.3971H2.16562C1.93916 36.8993 1.80368 41.4103 1.75937 45.9243H0.0015564C0.0967379 40.2516 0.381981 34.5892 0.856244 28.9578H3.24843L6.03124 41.4199H6.04687L8.85468 28.9578H11.1328C11.6375 35.1417 11.9391 40.7964 12.0281 45.9243H12.0203ZM20.3859 33.4048C19.6047 39.683 18.5625 44.2495 17.2859 47.0884C16.2766 49.2808 15.1781 50.3828 13.9812 50.3828C13.6641 50.3828 13.2734 50.2379 12.8016 49.9503V48.4411C13.0375 48.4895 13.3062 48.524 13.6078 48.524C14.1687 48.524 14.6172 48.2847 14.9594 47.8407C15.3656 47.2886 15.5703 46.6674 15.5703 45.9842C15.5703 45.5056 15.4156 44.5463 15.0906 43.0855L12.9828 33.4048H14.8797L16.3937 40.6423C16.7359 42.2964 16.8828 43.4352 16.8172 44.0931C17.6547 40.8332 18.2328 37.2628 18.5594 33.4048H20.3859ZM46.0687 45.9243H40.5844V28.9578H42.4312V43.84H46.0687V45.9243ZM39.1516 46.3338L37.0359 44.7994C37.2234 44.5716 37.4016 44.3209 37.5656 44.0333C38.4687 42.4873 38.9172 40.1753 38.9172 37.1317C38.9172 31.5114 37.4203 28.7093 34.425 28.7093C32.9594 28.7093 31.8125 29.4156 30.9906 30.8419C30.0953 32.3994 29.6391 34.7 29.6391 37.7321C29.6391 40.7159 30.0375 42.8968 30.8359 44.2979C31.5687 45.5448 32.6672 46.1797 34.1406 46.1797C34.6859 46.1797 35.1906 46.0831 35.6469 45.8806L38.4062 48.2525L39.1625 46.3361L39.1516 46.3338ZM32.2922 42.5218C31.8203 41.4199 31.5922 39.6461 31.5922 37.2007C31.5922 32.9239 32.4719 30.7913 34.2375 30.7913C35.1578 30.7913 35.8406 31.3067 36.2719 32.3258C36.7359 33.4393 36.9719 35.19 36.9719 37.6102C36.9719 41.9122 36.0844 44.0816 34.3266 44.0816C33.3984 44.0816 32.7234 43.5663 32.2844 42.5471L32.2922 42.5218ZM28.8406 41.2289C28.8406 42.6668 28.4828 43.8539 27.7578 44.7626C27.0422 45.6851 26.0891 46.1521 24.8766 46.1521C23.7453 46.1521 22.6625 45.6253 21.5969 44.5693L22.0937 43.1085C23.0047 43.7802 23.8266 44.1161 24.5766 44.1161C25.2687 44.1161 25.8141 43.8884 26.2047 43.4444C26.5953 42.9888 26.8312 42.3539 26.8312 41.551C26.8312 40.5434 26.3516 39.6807 25.4797 38.9629C24.6734 38.3049 23.0547 36.9499 23.0547 36.9499C22.175 36.0044 21.7437 34.9967 21.7437 33.3311C21.7437 31.9531 22.0687 30.8512 22.7203 30.0115C23.3797 29.1487 24.2172 28.73 25.2594 28.73C26.2962 28.7168 27.3127 29.1546 28.1812 29.9884L27.7344 31.4493C27.0362 30.9966 26.2831 30.7564 25.5203 30.743C24.9266 30.743 24.4703 30.9593 24.1531 31.378C23.8359 31.7967 23.6406 32.3235 23.6406 32.9838C23.6406 33.9914 24.1297 34.8541 25.0234 35.5949C25.8453 36.2528 27.4969 37.6447 27.4969 37.6447C28.4 38.5787 28.8484 39.5863 28.8484 41.2266L28.8406 41.2289ZM48.3812 23.2685C47.2656 23.2317 46.4031 23.3997 45.6797 23.8552C45.4766 23.9748 45.1422 23.9748 45.1094 24.359C45.2234 24.5269 45.2391 24.7915 45.3375 25.017C45.5078 25.4242 45.7937 25.9763 46.0625 26.2639C46.3562 26.5997 46.6484 26.9356 46.95 27.2232C47.4953 27.7155 48.1062 28.0031 48.6422 28.4931C48.9437 28.7807 49.2531 29.151 49.5531 29.4524C49.7078 29.6089 49.8047 29.8849 50 29.9792V29.9194C49.9016 29.74 49.8781 29.4754 49.7797 29.2615C49.6406 29.0567 49.5031 28.8773 49.3641 28.6748C48.9566 27.8783 48.468 27.1791 47.9156 26.602C47.4687 26.158 46.4922 25.5346 46.3125 24.78L46.2875 24.7317C46.5891 24.6949 46.9469 24.5269 47.2391 24.4073C47.7109 24.2279 48.15 24.2624 48.6391 24.0829C48.8634 23.9972 49.0859 23.9013 49.3062 23.7954V23.6159C49.0547 23.2455 48.8672 22.7417 48.6062 22.3943C47.8872 21.468 47.1197 20.6264 46.3109 19.8775C45.8719 19.4588 45.3187 19.1943 44.8547 18.8469C44.6922 18.7273 44.4078 18.6674 44.3172 18.4627C44.0656 18.0072 43.9187 17.4206 43.7391 16.8799C43.3303 15.7103 42.9504 14.5194 42.6 13.3095C42.3484 12.5066 42.2016 11.7152 41.8922 10.9721C40.4594 7.48448 38.8969 5.37718 36.5047 3.30438C35.9922 2.87188 35.3734 2.69244 34.7219 2.46468C34.3719 2.44168 34.0297 2.40487 33.6797 2.38186C33.4516 2.23693 33.2328 1.85504 33.0375 1.66179C32.2406 0.918715 30.1891 -0.675565 29.6109 1.43404C29.2359 2.77526 30.1641 4.08197 30.4906 4.75373C30.7266 5.23224 31.0281 5.76137 31.1984 6.2882C31.2969 6.64708 31.3203 7.01977 31.4187 7.39016C31.6391 8.28967 31.85 9.29501 32.1437 10.1347C32.2984 10.5672 32.4609 11.0204 32.6562 11.4046C32.7703 11.6324 32.9656 11.729 33.0062 12.0994C32.8109 12.5181 32.7953 13.13 32.6891 13.6338C32.1844 15.9574 32.3797 18.8216 33.0875 20.5355C33.3156 21.0508 33.8437 22.1781 34.5531 21.7456C35.1797 21.3752 35.0422 20.2111 35.2203 19.1805C35.2609 18.9297 35.2359 18.7733 35.3187 18.6053V18.6536C35.5219 19.2288 35.7172 19.7809 35.8969 20.3561C36.3203 21.3637 37.0766 22.4058 37.7031 23.1006C38.0375 23.471 38.2969 24.1082 38.7125 24.3337V24.2739H38.6797C38.5906 24.0944 38.4766 24.0093 38.3625 23.8667C38.0986 23.4818 37.8537 23.0698 37.6297 22.6336C37.0516 21.4833 36.5312 20.2134 36.075 18.9067C35.8552 18.2611 35.6545 17.6017 35.4734 16.9305C35.3922 16.6913 35.3922 16.3186 35.2531 16.199C35.0422 16.643 34.7328 17.0249 34.5859 17.5885C34.3172 18.4627 34.2922 19.5532 34.1875 20.6804C34.1391 20.7034 34.1625 20.6804 34.1391 20.7287C33.6922 20.5608 33.5375 19.889 33.3734 19.3139C32.95 17.8531 32.8844 15.5157 33.2437 13.8386C33.3422 13.4061 33.7562 12.0534 33.5937 11.6462C33.5047 11.2505 33.2281 11.0227 33.0812 10.7121C32.8937 10.328 32.7062 9.83794 32.5766 9.40544C32.2422 8.25516 32.0797 6.98526 31.7141 5.83499C31.5516 5.30816 31.2578 4.75603 31.0219 4.26601C30.7531 3.71388 30.4609 3.32049 30.2562 2.67173C30.1828 2.44398 30.0859 2.07359 30.2 1.83203C30.225 1.66409 30.2812 1.60428 30.3953 1.55597C30.575 1.32821 31.0953 1.61578 31.275 1.74691C31.7875 2.04598 32.2187 2.33355 32.65 2.76606C32.8453 2.9708 33.0562 3.3527 33.3094 3.46082H33.6031C34.05 3.60576 34.5469 3.49763 34.9625 3.68858C35.7031 4.03596 36.3703 4.53978 36.9719 5.08961C38.8115 6.82836 40.3076 9.25006 41.3094 12.1109C41.4797 12.5779 41.5531 13.0104 41.7078 13.5004C41.9922 14.5196 42.3594 15.5364 42.6516 16.5072C42.9437 17.4781 43.2219 18.4604 43.6437 19.2633C43.8547 19.6958 44.6859 19.9212 45.0672 20.1375C45.3437 20.3284 45.775 20.4964 46.0187 20.7126C46.4984 21.1451 46.9703 21.6352 47.4187 22.1137C47.6469 22.3414 48.3391 22.8567 48.3797 23.2639L48.3812 23.2685Z" fill="white"/>
</svg>
