<svg width="50" height="50" viewBox="0 0 95 139" fill="none" xmlns="http://www.w3.org/2000/svg">
<path d="M21.6667 34.75V92.6666H48.75V69.5C48.75 66.4279 49.8914 63.4816 51.923 61.3093C53.9547 59.137 56.7102 57.9166 59.5833 57.9166H86.6667C89.5398 57.9166 92.2953 59.137 94.327 61.3093C96.3586 63.4816 97.5 66.4279 97.5 69.5V92.6666H108.333V34.75H21.6667ZM0 115.833V104.25H21.6667C18.7935 104.25 16.038 103.03 14.0063 100.857C11.9747 98.685 10.8333 95.7387 10.8333 92.6666V34.75C10.8333 31.6779 11.9747 28.7316 14.0063 26.5593C16.038 24.387 18.7935 23.1666 21.6667 23.1666H108.333C111.207 23.1666 113.962 24.387 115.994 26.5593C118.025 28.7316 119.167 31.6779 119.167 34.75V92.6666C119.167 95.7387 118.025 98.685 115.994 100.857C113.962 103.03 111.207 104.25 108.333 104.25H130V115.833H97.5C97.5 118.905 96.3586 121.852 94.327 124.024C92.2953 126.196 89.5398 127.417 86.6667 127.417H59.5833C56.7102 127.417 53.9547 126.196 51.923 124.024C49.8914 121.852 48.75 118.905 48.75 115.833H0ZM62.2917 115.833C61.5734 115.833 60.8845 116.138 60.3766 116.681C59.8687 117.225 59.5833 117.961 59.5833 118.729C59.5833 119.497 59.8687 120.234 60.3766 120.777C60.8845 121.32 61.5734 121.625 62.2917 121.625C63.01 121.625 63.6988 121.32 64.2067 120.777C64.7147 120.234 65 119.497 65 118.729C65 117.961 64.7147 117.225 64.2067 116.681C63.6988 116.138 63.01 115.833 62.2917 115.833ZM83.9583 115.833C83.24 115.833 82.5512 116.138 82.0432 116.681C81.5353 117.225 81.25 117.961 81.25 118.729C81.25 119.497 81.5353 120.234 82.0432 120.777C82.5512 121.32 83.24 121.625 83.9583 121.625C84.6766 121.625 85.3655 121.32 85.8734 120.777C86.3813 120.234 86.6667 119.497 86.6667 118.729C86.6667 117.961 86.3813 117.225 85.8734 116.681C85.3655 116.138 84.6766 115.833 83.9583 115.833ZM70.4167 115.833V121.625H75.8333V115.833H70.4167ZM59.5833 69.5V110.042H86.6667V69.5H59.5833Z" fill="#ffffff"/>
</svg>
