<svg width="50" height="50" viewBox="0 0 87 100" fill="none" xmlns="http://www.w3.org/2000/svg">
<path d="M77.569 52.163C77.7784 51.1983 77.5628 50.2063 76.7765 49.89L73.5072 48.1854C72.6993 47.7985 71.6709 48.3211 71.5259 49.2082C70.8949 50.758 70.0002 52.0266 68.5538 52.0494C67.2989 52.0494 66.2753 51.2728 65.4827 49.7197C64.6901 48.1665 64.2938 46.1399 64.2938 43.6397C64.2938 41.1395 64.6901 39.094 65.4827 37.5028C66.2753 35.9118 67.2989 35.1163 68.5538 35.1163C70.1369 35.2482 70.8879 36.3951 71.5259 37.8437C71.864 38.7953 72.7837 39.0189 73.5072 38.7529L76.7765 37.0483C77.5335 36.5911 77.8707 35.4594 77.47 34.6617C75.5547 29.9643 72.5828 27.6157 68.554 27.6157C65.1857 27.6157 62.4613 29.0931 60.3809 32.0478C58.3005 35.0027 57.2603 38.8665 57.2603 43.6396C57.2603 48.4128 58.3005 52.2576 60.3809 55.1745C62.4613 58.0915 65.1857 59.5499 68.554 59.5499C72.5828 59.55 75.5877 57.0876 77.569 52.163ZM46.0659 59.55C51.3172 59.4569 55.316 55.3176 55.3782 49.8901C55.2854 47.024 54.2809 44.7949 52.5053 43.0715C54.0688 41.3779 54.9664 39.0714 54.9818 36.821C54.8519 30.6798 50.3993 27.7784 46.0658 27.7294C42.3013 27.7294 39.3954 29.4341 37.3479 32.8434C36.8856 33.6013 36.9517 34.3589 37.546 35.1163L39.9236 37.6166C40.6858 38.3959 41.5336 38.2519 42.2021 37.503C43.1929 35.9119 44.3817 35.1163 45.7685 35.1163C46.8913 35.1163 47.5519 35.4384 47.7499 36.0823C48.1319 37.0378 48.0221 37.9095 47.7499 38.6962C46.7281 39.9098 45.2349 39.5484 43.7874 39.5484C42.8458 39.5847 42.1176 40.2181 42.1032 41.2531V45.3443C42.1855 46.5179 42.8827 47.2934 43.7874 47.049C44.8793 47.0477 47.6486 46.9058 48.0967 47.9582C48.3278 48.5641 48.4435 49.0567 48.4435 49.4355C48.4435 51.178 47.6179 52.0494 45.9668 52.0494C44.3818 52.0494 43.0609 51.2159 42.0042 49.5491C41.3578 48.6519 40.3366 48.6389 39.7257 49.3219L37.2491 52.163C36.6546 52.8449 36.5885 53.5646 37.0509 54.3223C39.2959 57.9454 42.5645 59.5181 46.0659 59.55V59.55ZM36.2583 30.2296C36.4394 29.1402 35.7399 28.0894 34.8714 28.0703H30.5125C29.7198 28.0703 29.2576 28.5248 29.1255 29.4341L27.0452 41.5942L24.8657 29.434C24.6676 28.5248 24.1723 28.0702 23.3798 28.0702H20.2096C19.3509 28.0702 18.8555 28.5248 18.7236 29.434L16.5441 41.5941L14.4637 29.434C14.3317 28.5248 13.8364 28.0702 12.9778 28.0702H8.71787C7.63209 28.1683 7.11026 29.153 7.2319 30.2295L12.6806 57.7316C12.8787 58.6409 13.3741 59.0953 14.1666 59.0953H18.3274C19.1199 59.0953 19.6152 58.6409 19.8133 57.7316L21.7947 46.3671L23.776 57.7316C23.908 58.6409 24.4034 59.0953 25.2619 59.0953H29.4229C30.2154 59.0953 30.7107 58.6409 30.9088 57.7316L36.2583 30.2296ZM86.6832 0V76.1333L43.3416 99.4393L0 76.1333V0H86.6832Z" fill="#ffffff"/>
</svg>
