<svg width="50" height="50" viewBox="0 0 50 50" fill="none" xmlns="http://www.w3.org/2000/svg">
<path d="M47.6182 38.5417L25.5409 50V41.0708L39.2864 34.125L47.6182 38.5417ZM49.1318 37.3021V13.3021L41.0682 17.6167V32.9937L49.1318 37.2604V37.3021ZM1.51364 38.5417L23.5909 50V41.0708L9.84545 34.125L1.51364 38.5417ZM0 37.3021V13.3021L8.06364 17.6167V32.9937L0 37.3021ZM0.920455 11.7562L23.5932 0V8.63125L8.98182 16.0229L0.920455 11.7562ZM48.2136 11.7562L25.5409 0V8.63125L40.15 16.0229L48.2136 11.7562ZM23.5932 39.0375L10.0205 32.1896V18.5979L23.6023 25.7896L23.5932 39.0375ZM25.5409 39.0375L39.1227 32.1917V18.6L25.5409 25.7917V39.0375ZM10.9295 17.0625L24.5659 10.1667L38.2023 17.0625L24.5659 24.2562L10.9295 17.0625Z" fill="white"/>
</svg>
